<svg id="visual" viewBox="0 0 900 600" width="900" height="600" xmlns="http://www.w3.org/2000/svg" xmlns:xlink="http://www.w3.org/1999/xlink" version="1.1">
    <g transform="translate(460 285)">    
        <path d="M157.8 -193.7C187 -163.5 181.1 -97.2 170.7 -46.4C160.2 4.4 145 39.7 132.1 89.6C119.2 139.6 108.5 204.2 72.5 231.1C36.5 258.1 -24.9 247.5 -78.3 224.1C-131.6 200.7 -177.1 164.6 -199.8 118.6C-222.6 72.6 -222.6 16.7 -205.6 -28.7C-188.7 -74.2 -154.8 -109.1 -117.7 -137.9C-80.6 -166.7 -40.3 -189.3 12 -203.6C64.3 -217.9 128.6 -223.9 157.8 -193.7" fill="#99bfcc"></path>
    </g>
    <g transform="translate(460 300)">
        <path d="M100.9 -133.2C125.5 -99.6 136.6 -62.8 157.7 -16.9C178.7 29 209.7 84 202.2 135.3C194.7 186.6 148.7 234.3 94.1 250.7C39.6 267.2 -23.5 252.5 -77.7 226.9C-131.9 201.3 -177.2 164.9 -208.1 117.3C-239 69.7 -255.4 10.9 -243.6 -40.7C-231.8 -92.2 -191.7 -136.5 -146.4 -166.5C-101.1 -196.5 -50.6 -212.3 -6.2 -204.9C38.1 -197.5 76.3 -166.9 100.9 -133.2" fill="none" stroke="#6998a6" stroke-width="6"></path>
    </g>
</svg>