<svg width="903.33125px" height="89.6px" xmlns="http://www.w3.org/2000/svg" viewBox="-201.66562499999998 30.200000000000003 903.33125 89.6" style="background: none;" preserveAspectRatio="xMidYMid"><defs>
  <filter id="editing-scratch" x="-100%" y="-100%" width="300%" height="300%">
    <!-- COLOR -->
    <feFlood flood-color="#bce1aa" flood-opacity="0.75" result="COLOR-blu"></feFlood>
    <feFlood flood-color="#6e8763" flood-opacity="0.4" result="COLOR-red"></feFlood>
    <!-- COLOR END -->

    <!-- Texture -->
    <feTurbulence baseFrequency=".05" type="fractalNoise" numOctaves="3" seed="0" result="Texture_10"></feTurbulence>
    <feColorMatrix type="matrix" values="0 0 0 0 0,
    0 0 0 0 0,
    0 0 0 0 0,
    0 0 0 -2.1 1.1" in="Texture_10" result="Texture_20"></feColorMatrix>

    <feColorMatrix result="Texture_30" type="matrix" values="0 0 0 0 0,
    0 0 0 0 0,
    0 0 0 0 0,
    0 0 0 -1.7 1.8" in="Texture_10"></feColorMatrix>
    <!-- Texture -->

    <!-- FILL -->
    <feOffset dx="-3" dy="4" in="SourceAlpha" result="FILL_10"></feOffset>
    <feDisplacementMap scale="17" in="FILL_10" in2="Texture_10" result="FILL_20"></feDisplacementMap>
    <feComposite operator="in" in="Texture_30" in2="FILL_20" result="FILL_40"></feComposite>
    <feComposite operator="in" in="COLOR-blu" in2="FILL_40" result="FILL_50"></feComposite>
    <!-- FILL END-->

    <!-- OUTLINE -->
    <feMorphology operator="dilate" radius="3" in="SourceGraphic" result="OUTLINE_10"></feMorphology>
    <feComposite operator="out" in="OUTLINE_10" in2="SourceGraphic" result="OUTLINE_20"></feComposite>
    <feDisplacementMap scale="7" in="OUTLINE_20" in2="Texture_10" result="OUTLINE_30"></feDisplacementMap>
    <feComposite operator="arithmetic" k2="-1" k3="1" in="Texture_20" in2="OUTLINE_30" result="OUTLINE_40"></feComposite>
    <!-- OUTLINE END-->

    <!-- BEVEL OUTLINE -->
    <feConvolveMatrix order="8,8" divisor="1" kernelMatrix="1 0 0 0 0 0 0 0 0 1 0 0 0 0 0 0 0 0 1 0 0 0 0 0 0 0 0 1 0 0 0 0 0 0 0 0 1 0 0 0 0 0 0 0 0 1 0 0 0 0 0 0 0 0 1 0 0 0 0 0 0 0 0 1 " in="SourceGraphic" result="BEVEL_10"></feConvolveMatrix>
    <feMorphology operator="dilate" radius="2" in="BEVEL_10" result="BEVEL_20"></feMorphology>
    <feComposite operator="out" in="BEVEL_20" in2="BEVEL_10" result="BEVEL_30"></feComposite>
    <feDisplacementMap scale="7" in="BEVEL_30" in2="Texture_10" result="BEVEL_40"></feDisplacementMap>
    <feComposite operator="arithmetic" k2="-1" k3="1" in="Texture_20" in2="BEVEL_40" result="BEVEL_50"></feComposite>
    <feOffset dx="-7" dy="-7" in="BEVEL_50" result="BEVEL_60"></feOffset>
    <feComposite operator="out" in="BEVEL_60" in2="OUTLINE_10" result="BEVEL_70"></feComposite>
    <!-- BEVEL OUTLINE END -->

    <!-- BEVEL FILL -->
    <feOffset dx="-9" dy="-9" in="BEVEL_10" result="BEVEL-FILL_10"></feOffset>
    <feComposite operator="out" in="BEVEL-FILL_10" in2="OUTLINE_10" result="BEVEL-FILL_20"></feComposite>
    <feDisplacementMap scale="17" in="BEVEL-FILL_20" in2="Texture_10" result="BEVEL-FILL_30"></feDisplacementMap>
    <feComposite operator="in" in="COLOR-red" in2="BEVEL-FILL_30" result="BEVEL-FILL_50"></feComposite> <!-- -->
    <!-- BEVEL FILL END-->

    <feMerge result="merge2">
     <feMergeNode in="BEVEL-FILL_50"></feMergeNode>
     <feMergeNode in="BEVEL_70"></feMergeNode>
     <feMergeNode in="FILL_50"></feMergeNode>
      <feMergeNode in="OUTLINE_40"></feMergeNode>
    </feMerge>
  </filter>
</defs>
<g filter="url(#editing-scratch)"><g transform="translate(-75.29501497745514, 91.50000190734863)"><path d="M1.85-27.28L1.85-27.28L1.85-27.28Q2.46-28.51 3.81-29.19L3.81-29.19L3.81-29.19Q5.15-29.88 7.00-29.88L7.00-29.88L7.00-29.88Q9.90-29.88 11.64-27.79L11.64-27.79L11.64-27.79Q13.38-25.70 13.38-21.12L13.38-21.12L13.38-5.41L23.45-29.00L28.64-29.00L29.83-6.73L29.70-5.46L40.17-29.00L46.20-29.00L32.12 0L22.75 0L21.87-13.38L16.06 0L5.46 0L4.14-21.12L4.14-21.12Q4.00-23.50 3.37-25.06L3.37-25.06L3.37-25.06Q2.73-26.62 1.85-27.28ZM61.38-7.44L61.38-7.44L61.38-7.44Q62.48-6.69 62.48-5.04L62.48-5.04L62.48-5.04Q62.48-3.39 61.64-2.33L61.64-2.33L61.64-2.33Q60.81-1.28 59.44-0.57L59.44-0.57L59.44-0.57Q56.63 0.88 53.59 0.88L53.59 0.88L53.59 0.88Q50.56 0.88 48.77 0.22L48.77 0.22L48.77 0.22Q46.99-0.44 45.80-1.67L45.80-1.67L45.80-1.67Q43.47-4.00 43.47-8.27L43.47-8.27L43.47-8.27Q43.47-14.92 47.08-18.96L47.08-18.96L47.08-18.96Q50.95-23.32 57.68-23.32L57.68-23.32L57.68-23.32Q61.86-23.32 63.93-21.56L63.93-21.56L63.93-21.56Q65.47-20.24 65.47-18.08L65.47-18.08L65.47-18.08Q65.47-10.34 52.10-10.34L52.10-10.34L52.10-10.34Q51.92-9.20 51.92-8.23L51.92-8.23L51.92-8.23Q51.92-6.20 52.82-5.43L52.82-5.43L52.82-5.43Q53.72-4.66 55.40-4.66L55.40-4.66L55.40-4.66Q57.07-4.66 58.85-5.43L58.85-5.43L58.85-5.43Q60.63-6.20 61.38-7.44ZM52.40-12.23L52.40-12.23L52.40-12.23Q55.53-12.23 57.33-14.17L57.33-14.17L57.33-14.17Q59.14-16.02 59.14-18.96L59.14-18.96L59.14-18.96Q59.14-19.98 58.76-20.53L58.76-20.53L58.76-20.53Q58.39-21.08 57.64-21.08L57.64-21.08L57.64-21.08Q56.89-21.08 56.25-20.79L56.25-20.79L56.25-20.79Q55.62-20.50 54.96-19.54L54.96-19.54L54.96-19.54Q53.33-17.34 52.40-12.23ZM77.48-2.42L77.48-2.42L77.48-2.42Q76.12 0.88 71.76 0.88L71.76 0.88L71.76 0.88Q69.56 0.88 68.16-0.66L68.16-0.66L68.16-0.66Q67.01-1.94 67.01-3.39L67.01-3.39L67.01-3.39Q67.01-6.69 68.55-13.90L68.55-13.90L71.76-30.80L80.70-31.68L76.43-9.42L76.43-9.42Q75.68-6.16 75.68-5.02L75.68-5.02L75.68-5.02Q75.68-2.51 77.48-2.42ZM102.83-18.30L102.83-18.30L102.83-18.30Q102.83-16.46 101.29-15.31L101.29-15.31L101.29-15.31Q99.75-14.17 97.24-14.17L97.24-14.17L97.24-14.17Q96.18-14.17 95.57-14.48L95.57-14.48L95.57-14.48Q96.05-15.62 96.21-17.05L96.21-17.05L96.21-17.05Q96.36-18.48 96.36-18.88L96.36-18.88L96.36-18.88Q96.36-20.72 95.08-20.72L95.08-20.72L95.08-20.72Q94.20-20.72 93.21-19.62L93.21-19.62L93.21-19.62Q92.22-18.52 91.39-16.81L91.39-16.81L91.39-16.81Q89.54-12.85 89.54-8.84L89.54-8.84L89.54-8.84Q89.54-6.64 90.38-5.65L90.38-5.65L90.38-5.65Q91.21-4.66 93.06-4.66L93.06-4.66L93.06-4.66Q95.61-4.66 97.64-6.78L97.64-6.78L97.64-6.78Q98.21-7.44 98.52-8.18L98.52-8.18L98.52-8.18Q100.19-7.30 100.19-4.88L100.19-4.88L100.19-4.88Q100.19-2.42 97.46-0.79L97.46-0.79L97.46-0.79Q94.64 0.88 90.16 0.88L90.16 0.88L90.16 0.88Q81.22 0.88 81.22-8.58L81.22-8.58L81.22-8.58Q81.22-15.49 85.14-19.45L85.14-19.45L85.14-19.45Q88.92-23.32 95.88-23.32L95.88-23.32L95.88-23.32Q102.83-23.32 102.83-18.30ZM113.61 0.88L113.61 0.88L113.61 0.88Q103.93 0.88 103.93-8.23L103.93-8.23L103.93-8.23Q103.93-14.70 107.49-18.88L107.49-18.88L107.49-18.88Q111.28-23.32 117.83-23.32L117.83-23.32L117.83-23.32Q122.58-23.32 125.00-21.12L125.00-21.12L125.00-21.12Q127.42-18.92 127.42-14.30L127.42-14.30L127.42-14.30Q127.42-7.26 123.64-3.17L123.64-3.17L123.64-3.17Q119.94 0.88 113.61 0.88ZM114.75-18.26L114.75-18.26L114.75-18.26Q114.22-17.07 113.81-15.29L113.81-15.29L113.81-15.29Q113.39-13.51 112.86-10.69L112.86-10.69L112.86-10.69Q112.33-7.88 112.33-4.40L112.33-4.40L112.33-4.40Q112.33-3.26 112.71-2.51L112.71-2.51L112.71-2.51Q113.08-1.76 114.09-1.76L114.09-1.76L114.09-1.76Q115.10-1.76 115.74-2.24L115.74-2.24L115.74-2.24Q116.38-2.73 116.86-3.87L116.86-3.87L116.86-3.87Q117.74-5.90 118.45-9.66L118.45-9.66L118.45-9.66Q119.15-13.42 119.22-15.05L119.22-15.05L119.22-15.05Q119.28-16.68 119.28-17.89L119.28-17.89L119.28-17.89Q119.28-19.10 118.93-19.89L118.93-19.89L118.93-19.89Q118.58-20.68 117.59-20.68L117.59-20.68L117.59-20.68Q116.60-20.68 115.94-20.06L115.94-20.06L115.94-20.06Q115.28-19.45 114.75-18.26ZM161.70 0.88L161.70 0.88L161.70 0.88Q156.38 0.88 156.38-3.26L156.38-3.26L156.38-3.26Q156.38-5.06 157.15-8.56L157.15-8.56L157.15-8.56Q157.92-12.06 158.18-13.46L158.18-13.46L158.18-13.46Q158.80-16.68 158.80-17.69L158.80-17.69L158.80-17.69Q158.80-19.93 157.12-19.93L157.12-19.93L157.12-19.93Q156.02-19.93 154.97-18.41L154.97-18.41L154.97-18.41Q153.91-16.90 153.43-13.86L153.43-13.86L150.70 0L142.12 0.88L144.50-11.09L144.50-11.09Q144.89-13.07 145.24-15.31L145.24-15.31L145.24-15.31Q145.60-17.56 145.60-17.91L145.60-17.91L145.60-17.91Q145.60-19.93 144.10-19.93L144.10-19.93L144.10-19.93Q143.09-19.93 141.99-18.44L141.99-18.44L141.99-18.44Q140.89-16.94 140.27-13.86L140.27-13.86L137.59 0L128.92 0.88L133.54-22.44L140.71-23.32L139.96-18.88L139.96-18.88Q141.11-21.25 143.22-22.29L143.22-22.29L143.22-22.29Q145.33-23.32 148.63-23.32L148.63-23.32L148.63-23.32Q150.52-23.32 151.76-22.40L151.76-22.40L151.76-22.40Q152.99-21.47 153.38-19.98L153.38-19.98L153.38-19.98Q154.13-21.52 156.05-22.42L156.05-22.42L156.05-22.42Q157.96-23.32 160.31-23.32L160.31-23.32L160.31-23.32Q162.67-23.32 163.83-22.81L163.83-22.81L163.83-22.81Q165-22.31 165.70-21.47L165.70-21.47L165.70-21.47Q166.89-19.93 166.89-17.12L166.89-17.12L166.89-17.12Q166.89-14.34 165.70-8.58L165.70-8.58L165.70-8.58Q165.09-5.76 165.09-4.73L165.09-4.73L165.09-4.73Q165.09-3.70 165.68-3.08L165.68-3.08L165.68-3.08Q166.28-2.46 167.16-2.38L167.16-2.38L167.16-2.38Q166.72-0.88 165.20 0L165.20 0L165.20 0Q163.68 0.88 161.70 0.88ZM188.36-7.44L188.36-7.44L188.36-7.44Q189.46-6.69 189.46-5.04L189.46-5.04L189.46-5.04Q189.46-3.39 188.63-2.33L188.63-2.33L188.63-2.33Q187.79-1.28 186.43-0.57L186.43-0.57L186.43-0.57Q183.61 0.88 180.58 0.88L180.58 0.88L180.58 0.88Q177.54 0.88 175.76 0.22L175.76 0.22L175.76 0.22Q173.98-0.44 172.79-1.67L172.79-1.67L172.79-1.67Q170.46-4.00 170.46-8.27L170.46-8.27L170.46-8.27Q170.46-14.92 174.06-18.96L174.06-18.96L174.06-18.96Q177.94-23.32 184.67-23.32L184.67-23.32L184.67-23.32Q188.85-23.32 190.92-21.56L190.92-21.56L190.92-21.56Q192.46-20.24 192.46-18.08L192.46-18.08L192.46-18.08Q192.46-10.34 179.08-10.34L179.08-10.34L179.08-10.34Q178.90-9.20 178.90-8.23L178.90-8.23L178.90-8.23Q178.90-6.20 179.81-5.43L179.81-5.43L179.81-5.43Q180.71-4.66 182.38-4.66L182.38-4.66L182.38-4.66Q184.05-4.66 185.83-5.43L185.83-5.43L185.83-5.43Q187.62-6.20 188.36-7.44ZM179.39-12.23L179.39-12.23L179.39-12.23Q182.51-12.23 184.32-14.17L184.32-14.17L184.32-14.17Q186.12-16.02 186.12-18.96L186.12-18.96L186.12-18.96Q186.12-19.98 185.75-20.53L185.75-20.53L185.75-20.53Q185.37-21.08 184.62-21.08L184.62-21.08L184.62-21.08Q183.88-21.08 183.24-20.79L183.24-20.79L183.24-20.79Q182.60-20.50 181.94-19.54L181.94-19.54L181.94-19.54Q180.31-17.34 179.39-12.23ZM203.72-4.40L203.72-4.40L203.72-4.40Q203.72-5.59 204.34-8.58L204.34-8.58L206.67-20.46L204.07-20.46L204.25-21.78L204.25-21.78Q209.53-23.36 214.63-27.24L214.63-27.24L216.74-27.24L215.69-22.44L219.12-22.44L218.72-20.46L215.34-20.46L213.09-8.58L213.09-8.58Q212.52-5.85 212.52-4.93L212.52-4.93L212.52-4.93Q212.52-2.82 214.37-2.38L214.37-2.38L214.37-2.38Q213.93-0.88 212.34 0L212.34 0L212.34 0Q210.76 0.88 208.52 0.88L208.52 0.88L208.52 0.88Q206.27 0.88 205.00-0.53L205.00-0.53L205.00-0.53Q203.72-1.94 203.72-4.40ZM228.32 0.88L228.32 0.88L228.32 0.88Q218.64 0.88 218.64-8.23L218.64-8.23L218.64-8.23Q218.64-14.70 222.20-18.88L222.20-18.88L222.20-18.88Q225.98-23.32 232.54-23.32L232.54-23.32L232.54-23.32Q237.29-23.32 239.71-21.12L239.71-21.12L239.71-21.12Q242.13-18.92 242.13-14.30L242.13-14.30L242.13-14.30Q242.13-7.26 238.35-3.17L238.35-3.17L238.35-3.17Q234.65 0.88 228.32 0.88ZM229.46-18.26L229.46-18.26L229.46-18.26Q228.93-17.07 228.51-15.29L228.51-15.29L228.51-15.29Q228.10-13.51 227.57-10.69L227.57-10.69L227.57-10.69Q227.04-7.88 227.04-4.40L227.04-4.40L227.04-4.40Q227.04-3.26 227.41-2.51L227.41-2.51L227.41-2.51Q227.79-1.76 228.80-1.76L228.80-1.76L228.80-1.76Q229.81-1.76 230.45-2.24L230.45-2.24L230.45-2.24Q231.09-2.73 231.57-3.87L231.57-3.87L231.57-3.87Q232.45-5.90 233.16-9.66L233.16-9.66L233.16-9.66Q233.86-13.42 233.93-15.05L233.93-15.05L233.93-15.05Q233.99-16.68 233.99-17.89L233.99-17.89L233.99-17.89Q233.99-19.10 233.64-19.89L233.64-19.89L233.64-19.89Q233.29-20.68 232.30-20.68L232.30-20.68L232.30-20.68Q231.31-20.68 230.65-20.06L230.65-20.06L230.65-20.06Q229.99-19.45 229.46-18.26ZM257.97 0L260.52-12.94L260.52-12.94Q259.25-24.86 254.76-27.41L254.76-27.41L254.76-27.41Q255.68-28.56 257.18-29.19L257.18-29.19L257.18-29.19Q258.68-29.83 260.48-29.83L260.48-29.83L260.48-29.83Q262.28-29.83 263.65-29.19L263.65-29.19L263.65-29.19Q265.01-28.56 265.89-27.19L265.89-27.19L265.89-27.19Q267.56-24.60 267.56-18.39L267.56-18.39L267.56-15.22L267.56-15.22Q270.20-22.97 272.84-26.31L272.84-26.31L272.84-26.31Q275.53-29.74 278.87-29.74L278.87-29.74L278.87-29.74Q280.19-29.74 281.07-29.06L281.07-29.06L281.07-29.06Q281.95-28.38 282.39-27.37L282.39-27.37L282.39-27.37Q279.00-25.87 275.75-21.56L275.75-21.56L275.75-21.56Q272.49-17.25 270.38-11.22L270.38-11.22L267.78 0L257.97 0ZM294.14-1.85L294.14-1.85L294.14-1.85Q292.03 0.88 286.79 0.88L286.79 0.88L286.79 0.88Q284.06 0.88 282.08-0.77L282.08-0.77L282.08-0.77Q280.10-2.42 280.10-4.80L280.10-4.80L280.10-4.80Q280.10-6.12 280.24-6.78L280.24-6.78L283.18-22.44L292.12-23.32L288.90-6.34L288.90-6.34Q288.73-5.37 288.73-4.80L288.73-4.80L288.73-4.80Q288.73-2.24 290.27-2.24L290.27-2.24L290.27-2.24Q291.98-2.24 293.22-4.58L293.22-4.58L293.22-4.58Q293.61-5.32 293.79-6.29L293.79-6.29L296.91-22.44L305.58-23.32L302.32-6.16L302.32-6.16Q302.19-5.50 302.19-4.80L302.19-4.80L302.19-4.80Q302.19-4.09 302.59-3.32L302.59-3.32L302.59-3.32Q302.98-2.55 304.26-2.38L304.26-2.38L304.26-2.38Q304.00-1.32 303.07-0.62L303.07-0.62L303.07-0.62Q301.14 0.88 299.05 0.88L299.05 0.88L299.05 0.88Q296.96 0.88 295.72 0.13L295.72 0.13L295.72 0.13Q294.49-0.62 294.14-1.85ZM330.09-4.88L330.09-4.88L330.09-4.88Q330.09-2.95 332.07-2.38L332.07-2.38L332.07-2.38Q331.58-0.75 329.69 0.13L329.69 0.13L329.69 0.13Q328.11 0.88 326.37 0.88L326.37 0.88L326.37 0.88Q324.63 0.88 323.73 0.42L323.73 0.42L323.73 0.42Q322.83-0.04 322.34-0.79L322.34-0.79L322.34-0.79Q321.55-1.94 321.55-4.09L321.55-4.09L321.55-4.09Q321.55-5.37 322.26-8.89L322.26-8.89L322.87-12.23L322.87-12.23Q323.62-16.06 323.62-17.47L323.62-17.47L323.62-17.47Q323.62-19.93 322.26-19.93L322.26-19.93L322.26-19.93Q320.54-19.93 319.44-17.42L319.44-17.42L319.44-17.42Q319.00-16.46 318.69-15.00L318.69-15.00L315.70 0L306.86 0.88L313.06-30.80L321.90-31.68L321.55-29.92L321.55-29.92Q320.32-23.14 319.26-20.86L319.26-20.86L319.26-20.86Q321.73-23.32 326.26-23.32L326.26-23.32L326.26-23.32Q331.06-23.32 331.94-20.15L331.94-20.15L331.94-20.15Q332.24-19.14 332.24-18.26L332.24-18.26L332.24-18.26Q332.24-17.38 332.18-16.70L332.18-16.70L332.18-16.70Q332.11-16.02 331.89-14.78L331.89-14.78L331.32-11.62L330.31-6.64L330.31-6.64Q330.09-5.63 330.09-4.88ZM337.55-1.32L337.55-1.32L337.55-1.32Q336.51-2.46 336.05-4.27L336.05-4.27L336.05-4.27Q335.59-6.07 335.59-9.02L335.59-9.02L335.59-9.02Q335.59-11.97 336.60-14.65L336.60-14.65L336.60-14.65Q337.61-17.34 339.46-19.27L339.46-19.27L339.46-19.27Q343.24-23.32 349.49-23.32L349.49-23.32L349.49-23.32Q351.74-23.32 353.36-22.57L353.36-22.57L360.89-23.32L357.63-6.16L357.63-6.16Q357.50-5.63 357.50-4.66L357.50-4.66L357.50-4.66Q357.50-3.70 358.09-3.08L358.09-3.08L358.09-3.08Q358.69-2.46 359.57-2.38L359.57-2.38L359.57-2.38Q359.13-0.88 357.52 0L357.52 0L357.52 0Q355.92 0.88 354.11 0.88L354.11 0.88L354.11 0.88Q352.31 0.88 351.10 0.20L351.10 0.20L351.10 0.20Q349.89-0.48 349.54-1.63L349.54-1.63L349.54-1.63Q348.83-0.53 347.34 0.18L347.34 0.18L347.34 0.18Q345.84 0.88 343.84 0.88L343.84 0.88L343.84 0.88Q341.84 0.88 340.21 0.35L340.21 0.35L340.21 0.35Q338.58-0.18 337.55-1.32ZM346.83-19.18L346.83-19.18L346.83-19.18Q346.32-18.39 345.88-17.05L345.88-17.05L345.88-17.05Q345.44-15.71 344.72-12.12L344.72-12.12L344.72-12.12Q343.99-8.54 343.99-5.98L343.99-5.98L343.99-5.98Q343.99-3.43 344.39-2.68L344.39-2.68L344.39-2.68Q344.78-1.94 345.49-1.94L345.49-1.94L345.49-1.94Q346.90-1.94 347.93-3.28L347.93-3.28L347.93-3.28Q348.96-4.62 349.36-7.00L349.36-7.00L351.69-19.89L351.69-19.89Q350.77-20.68 349.69-20.68L349.69-20.68L349.69-20.68Q348.61-20.68 347.97-20.33L347.97-20.33L347.97-20.33Q347.34-19.98 346.83-19.18ZM381.88 0.88L381.88 0.88L381.88 0.88Q376.55 0.88 376.55-3.26L376.55-3.26L376.55-3.26Q376.60-4.40 376.95-6.34L376.95-6.34L377.74-10.38L377.74-10.38Q378.93-16.10 378.93-17.38L378.93-17.38L378.93-17.38Q378.93-19.93 377.43-19.93L377.43-19.93L377.43-19.93Q374.92-19.93 373.60-13.38L373.60-13.38L371.01 0L362.16 0.88L366.74-22.48L373.96-23.32L373.25-19.01L373.25-19.01Q375.32-23.32 381.66-23.32L381.66-23.32L381.66-23.32Q384.74-23.32 386.03-22.02L386.03-22.02L386.03-22.02Q387.33-20.72 387.33-17.82L387.33-17.82L387.33-17.82Q387.33-15.09 385.92-8.71L385.92-8.71L385.92-8.71Q385.26-5.85 385.26-4.77L385.26-4.77L385.26-4.77Q385.26-3.70 385.86-3.08L385.86-3.08L385.86-3.08Q386.45-2.46 387.33-2.38L387.33-2.38L387.33-2.38Q386.89-0.88 385.37 0L385.37 0L385.37 0Q383.86 0.88 381.88 0.88ZM397.23-20.28L392.57-20.28L392.57-20.28Q394.20-25.92 394.28-31.86L394.28-31.86L395.56-32.03L395.56-32.03Q396.22-32.12 396.70-32.12L396.70-32.12L396.70-32.12Q398.64-32.12 399.70-31.17L399.70-31.17L399.70-31.17Q400.75-30.23 400.75-28.56L400.75-28.56L400.75-28.56Q400.75-26.80 399.96-24.86L399.96-24.86L399.96-24.86Q398.55-21.43 397.23-20.28L397.23-20.28ZM413.38-15.44L413.38-15.44L413.38-15.44Q414.00-17.07 414.00-18.48L414.00-18.48L414.00-18.48Q414.00-21.08 411.88-21.08L411.88-21.08L411.88-21.08Q410.78-21.08 409.88-20.09L409.88-20.09L409.88-20.09Q408.98-19.10 408.98-17.86L408.98-17.86L408.98-17.86Q408.98-16.98 409.68-16.28L409.68-16.28L409.68-16.28Q410.70-15.31 413.29-13.73L413.29-13.73L413.29-13.73Q415.89-12.14 416.88-10.85L416.88-10.85L416.88-10.85Q417.87-9.55 417.87-7.77L417.87-7.77L417.87-7.77Q417.87-5.98 417.01-4.36L417.01-4.36L417.01-4.36Q416.15-2.73 414.61-1.58L414.61-1.58L414.61-1.58Q411.31 0.88 406.03 0.88L406.03 0.88L406.03 0.88Q403.17 0.88 400.97-0.62L400.97-0.62L400.97-0.62Q398.77-2.07 398.77-3.78L398.77-3.78L398.77-3.78Q398.77-5.50 400.03-6.51L400.03-6.51L400.03-6.51Q401.28-7.52 403.13-7.52L403.13-7.52L403.13-7.52Q404.98-7.52 406.12-6.82L406.12-6.82L406.12-6.82Q405.55-5.37 405.55-4.40L405.55-4.40L405.55-4.40Q405.55-1.50 408.01-1.50L408.01-1.50L408.01-1.50Q409.07-1.50 409.77-2.16L409.77-2.16L409.77-2.16Q410.48-2.82 410.48-3.96L410.48-3.96L410.48-3.96Q410.48-6.20 406.69-8.58L406.69-8.58L406.69-8.58Q403.61-10.60 402.91-11.40L402.91-11.40L402.91-11.40Q401.72-12.80 401.72-14.56L401.72-14.56L401.72-14.56Q401.72-16.32 402.56-18.00L402.56-18.00L402.56-18.00Q403.39-19.67 404.93-20.86L404.93-20.86L404.93-20.86Q408.14-23.32 413.73-23.32L413.73-23.32L413.73-23.32Q416.59-23.32 418.29-22.18L418.29-22.18L418.29-22.18Q419.98-21.03 419.98-19.10L419.98-19.10L419.98-19.10Q419.98-17.16 418.81-16.06L418.81-16.06L418.81-16.06Q417.65-14.96 415.54-14.96L415.54-14.96L415.54-14.96Q414.08-14.96 413.38-15.44ZM447.88-29.35L447.88-29.35L447.88-29.35Q458.66-29.35 458.66-21.74L458.66-21.74L458.66-21.74Q458.66-17.56 455.97-15.05L455.97-15.05L455.97-15.05Q453.33-12.54 448.71-12.54L448.71-12.54L448.71-12.54Q446.56-12.54 444.88-13.77L444.88-13.77L444.88-13.77Q444.09-14.30 443.56-15.00L443.56-15.00L443.56-15.00Q446.78-15.00 448.47-16.96L448.47-16.96L448.47-16.96Q450.16-18.92 450.16-22.75L450.16-22.75L450.16-22.75Q450.16-26.58 446.38-26.58L446.38-26.58L445.32-26.58L445.32-26.58Q445.06-26.58 444.84-26.53L444.84-26.53L439.78 0L430.23 0L435.64-28.82L435.64-28.82Q440.35-29.26 443.08-29.30L443.08-29.30L443.08-29.30Q445.81-29.35 447.88-29.35ZM468.47 0.88L468.47 0.88L468.47 0.88Q458.79 0.88 458.79-8.23L458.79-8.23L458.79-8.23Q458.79-14.70 462.35-18.88L462.35-18.88L462.35-18.88Q466.14-23.32 472.69-23.32L472.69-23.32L472.69-23.32Q477.44-23.32 479.86-21.12L479.86-21.12L479.86-21.12Q482.28-18.92 482.28-14.30L482.28-14.30L482.28-14.30Q482.28-7.26 478.50-3.17L478.50-3.17L478.50-3.17Q474.80 0.88 468.47 0.88ZM469.61-18.26L469.61-18.26L469.61-18.26Q469.08-17.07 468.67-15.29L468.67-15.29L468.67-15.29Q468.25-13.51 467.72-10.69L467.72-10.69L467.72-10.69Q467.19-7.88 467.19-4.40L467.19-4.40L467.19-4.40Q467.19-3.26 467.57-2.51L467.57-2.51L467.57-2.51Q467.94-1.76 468.95-1.76L468.95-1.76L468.95-1.76Q469.96-1.76 470.60-2.24L470.60-2.24L470.60-2.24Q471.24-2.73 471.72-3.87L471.72-3.87L471.72-3.87Q472.60-5.90 473.31-9.66L473.31-9.66L473.31-9.66Q474.01-13.42 474.08-15.05L474.08-15.05L474.08-15.05Q474.14-16.68 474.14-17.89L474.14-17.89L474.14-17.89Q474.14-19.10 473.79-19.89L473.79-19.89L473.79-19.89Q473.44-20.68 472.45-20.68L472.45-20.68L472.45-20.68Q471.46-20.68 470.80-20.06L470.80-20.06L470.80-20.06Q470.14-19.45 469.61-18.26ZM498.65-12.36L498.65-12.36L498.65-12.36Q500.24-15.18 500.24-18.04L500.24-18.04L500.24-18.04Q500.24-19.93 498.87-19.93L498.87-19.93L498.87-19.93Q497.82-19.93 496.72-18.13L496.72-18.13L496.72-18.13Q495.57-16.32 495.22-13.99L495.22-13.99L492.93 0L483.82 0.88L488.31-22.44L495.57-23.32L494.78-18.88L494.78-18.88Q496.94-23.32 501.78-23.32L501.78-23.32L501.78-23.32Q504.33-23.32 505.71-22L505.71-22L505.71-22Q507.10-20.68 507.10-17.97L507.10-17.97L507.10-17.97Q507.10-15.27 505.32-13.55L505.32-13.55L505.32-13.55Q503.54-11.84 500.50-11.84L500.50-11.84L500.50-11.84Q499.18-11.84 498.65-12.36ZM508.51-4.40L508.51-4.40L508.51-4.40Q508.51-5.59 509.12-8.58L509.12-8.58L511.46-20.46L508.86-20.46L509.04-21.78L509.04-21.78Q514.32-23.36 519.42-27.24L519.42-27.24L521.53-27.24L520.48-22.44L523.91-22.44L523.51-20.46L520.12-20.46L517.88-8.58L517.88-8.58Q517.31-5.85 517.31-4.93L517.31-4.93L517.31-4.93Q517.31-2.82 519.16-2.38L519.16-2.38L519.16-2.38Q518.72-0.88 517.13 0L517.13 0L517.13 0Q515.55 0.88 513.30 0.88L513.30 0.88L513.30 0.88Q511.06 0.88 509.78-0.53L509.78-0.53L509.78-0.53Q508.51-1.94 508.51-4.40ZM540.85-25.52L540.85-25.52L540.85-25.52Q541.46-26.58 541.46-27.72L541.46-27.72L541.46-27.72Q541.46-29.74 540.23-29.74L540.23-29.74L540.23-29.74Q538.34-29.74 537.55-25.87L537.55-25.87L536.89-22.44L540.89-22.44L540.63-20.46L536.49-20.46L532.53 0L523.64 0.88L527.87-20.46L524.74-20.46L525.14-22.44L528.22-22.44L529.14-25.92L529.14-25.92Q529.94-29.13 533.32-30.62L533.32-30.62L533.32-30.62Q535.79-31.68 539.92-31.68L539.92-31.68L539.92-31.68Q544.06-31.68 545.91-30.62L545.91-30.62L545.91-30.62Q547.76-29.57 547.76-28.16L547.76-28.16L547.76-28.16Q547.76-26.75 546.66-25.87L546.66-25.87L546.66-25.87Q545.56-24.99 544.32-24.99L544.32-24.99L544.32-24.99Q541.90-24.99 540.85-25.52ZM549.74 0.88L549.74 0.88L549.74 0.88Q540.06 0.88 540.06-8.23L540.06-8.23L540.06-8.23Q540.06-14.70 543.62-18.88L543.62-18.88L543.62-18.88Q547.40-23.32 553.96-23.32L553.96-23.32L553.96-23.32Q558.71-23.32 561.13-21.12L561.13-21.12L561.13-21.12Q563.55-18.92 563.55-14.30L563.55-14.30L563.55-14.30Q563.55-7.26 559.77-3.17L559.77-3.17L559.77-3.17Q556.07 0.88 549.74 0.88ZM550.88-18.26L550.88-18.26L550.88-18.26Q550.35-17.07 549.93-15.29L549.93-15.29L549.93-15.29Q549.52-13.51 548.99-10.69L548.99-10.69L548.99-10.69Q548.46-7.88 548.46-4.40L548.46-4.40L548.46-4.40Q548.46-3.26 548.83-2.51L548.83-2.51L548.83-2.51Q549.21-1.76 550.22-1.76L550.22-1.76L550.22-1.76Q551.23-1.76 551.87-2.24L551.87-2.24L551.87-2.24Q552.51-2.73 552.99-3.87L552.99-3.87L552.99-3.87Q553.87-5.90 554.58-9.66L554.58-9.66L554.58-9.66Q555.28-13.42 555.35-15.05L555.35-15.05L555.35-15.05Q555.41-16.68 555.41-17.89L555.41-17.89L555.41-17.89Q555.41-19.10 555.06-19.89L555.06-19.89L555.06-19.89Q554.71-20.68 553.72-20.68L553.72-20.68L553.72-20.68Q552.73-20.68 552.07-20.06L552.07-20.06L552.07-20.06Q551.41-19.45 550.88-18.26ZM576.66-2.42L576.66-2.42L576.66-2.42Q575.30 0.88 570.94 0.88L570.94 0.88L570.94 0.88Q568.74 0.88 567.34-0.66L567.34-0.66L567.34-0.66Q566.19-1.94 566.19-3.39L566.19-3.39L566.19-3.39Q566.19-6.69 567.73-13.90L567.73-13.90L570.94-30.80L579.88-31.68L575.61-9.42L575.61-9.42Q574.86-6.16 574.86-5.02L574.86-5.02L574.86-5.02Q574.86-2.51 576.66-2.42ZM590.96-2.42L590.96-2.42L590.96-2.42Q589.60 0.88 585.24 0.88L585.24 0.88L585.24 0.88Q583.00 0.88 581.59-0.66L581.59-0.66L581.59-0.66Q580.40-2.02 580.40-3.39L580.40-3.39L580.40-3.39Q580.40-6.95 582.03-13.90L582.03-13.90L583.66-22.44L592.59-23.32L589.91-9.42L589.91-9.42Q589.16-6.16 589.16-5.02L589.16-5.02L589.16-5.02Q589.16-2.51 590.96-2.42ZM584.45-28.56L584.45-28.56L584.45-28.56Q584.45-30.27 585.88-31.20L585.88-31.20L585.88-31.20Q587.31-32.12 589.38-32.12L589.38-32.12L589.38-32.12Q591.45-32.12 592.70-31.20L592.70-31.20L592.70-31.20Q593.96-30.27 593.96-28.56L593.96-28.56L593.96-28.56Q593.96-26.84 592.57-25.96L592.57-25.96L592.57-25.96Q591.18-25.08 589.12-25.08L589.12-25.08L589.12-25.08Q587.05-25.08 585.75-25.96L585.75-25.96L585.75-25.96Q584.45-26.84 584.45-28.56ZM604.30 0.88L604.30 0.88L604.30 0.88Q594.62 0.88 594.62-8.23L594.62-8.23L594.62-8.23Q594.62-14.70 598.18-18.88L598.18-18.88L598.18-18.88Q601.96-23.32 608.52-23.32L608.52-23.32L608.52-23.32Q613.27-23.32 615.69-21.12L615.69-21.12L615.69-21.12Q618.11-18.92 618.11-14.30L618.11-14.30L618.11-14.30Q618.11-7.26 614.33-3.17L614.33-3.17L614.33-3.17Q610.63 0.88 604.30 0.88ZM605.44-18.26L605.44-18.26L605.44-18.26Q604.91-17.07 604.49-15.29L604.49-15.29L604.49-15.29Q604.08-13.51 603.55-10.69L603.55-10.69L603.55-10.69Q603.02-7.88 603.02-4.40L603.02-4.40L603.02-4.40Q603.02-3.26 603.39-2.51L603.39-2.51L603.39-2.51Q603.77-1.76 604.78-1.76L604.78-1.76L604.78-1.76Q605.79-1.76 606.43-2.24L606.43-2.24L606.43-2.24Q607.07-2.73 607.55-3.87L607.55-3.87L607.55-3.87Q608.43-5.90 609.14-9.66L609.14-9.66L609.14-9.66Q609.84-13.42 609.91-15.05L609.91-15.05L609.91-15.05Q609.97-16.68 609.97-17.89L609.97-17.89L609.97-17.89Q609.97-19.10 609.62-19.89L609.62-19.89L609.62-19.89Q609.27-20.68 608.28-20.68L608.28-20.68L608.28-20.68Q607.29-20.68 606.63-20.06L606.63-20.06L606.63-20.06Q605.97-19.45 605.44-18.26ZM630.96-7.57L630.96-7.57L630.96-7.57Q629.99-8.80 629.99-10.05L629.99-10.05L629.99-10.05Q629.99-11.31 631.27-12.17L631.27-12.17L631.27-12.17Q632.54-13.02 634.88-13.02L634.88-13.02L634.88-13.02Q635.93-13.02 637.30-12.76L637.30-12.76L640.11-12.23L642.71-11.66L642.71-11.66Q643.94-11.40 644.78-11.40L644.78-11.40L644.78-11.40Q645.61-11.40 646.54-11.77L646.54-11.77L646.54-11.77Q647.46-12.14 647.81-12.80L647.81-12.80L647.81-12.80Q648.74-11.75 648.74-10.43L648.74-10.43L648.74-10.43Q648.74-9.11 647.48-8.18L647.48-8.18L647.48-8.18Q646.23-7.26 643.98-7.26L643.98-7.26L643.98-7.26Q642.75-7.26 640.20-7.79L640.20-7.79L640.20-7.79Q635.32-8.80 634.33-8.80L634.33-8.80L634.33-8.80Q633.34-8.80 632.35-8.47L632.35-8.47L632.35-8.47Q631.36-8.14 630.96-7.57Z" fill="#475f40"></path></g></g><style>text {
  font-size: 64px;
  font-family: Arial Black;
  dominant-baseline: central;
  text-anchor: middle;
}
</style></svg>