<svg width="1037.084375px" height="91.39999999999999px" xmlns="http://www.w3.org/2000/svg" viewBox="-268.54218749999995 29.300000000000004 1037.084375 91.39999999999999" style="background: none;" preserveAspectRatio="xMidYMid"><defs>
  <filter id="editing-scratch" x="-100%" y="-100%" width="300%" height="300%">
    <!-- COLOR -->
    <!-- 
      .dark { 
        <feFlood flood-color="#6e8763" flood-opacity="0.75" result="COLOR-blu"></feFlood>
        <feFlood flood-color="#437f64" flood-opacity="0.4" result="COLOR-red"></feFlood>
      }
      .light { 
        <feFlood flood-color="#bce1aa" flood-opacity="1" result="COLOR-blu"></feFlood>
        <feFlood flood-color="#6e8763" flood-opacity="0.75" result="COLOR-red"></feFlood>
      }
    -->
    
    <feFlood flood-color="#bce1aa" flood-opacity="1" result="COLOR-blu"></feFlood>
        <feFlood flood-color="#6e8763" flood-opacity="0.75" result="COLOR-red"></feFlood>
    <!-- COLOR END -->

    <!-- Texture -->
    <feTurbulence baseFrequency=".05" type="fractalNoise" numOctaves="3" seed="0" result="Texture_10"></feTurbulence>
    <feColorMatrix type="matrix" values="0 0 0 0 0,
    0 0 0 0 0,
    0 0 0 0 0,
    0 0 0 -2.1 1.1" in="Texture_10" result="Texture_20"></feColorMatrix>

    <feColorMatrix result="Texture_30" type="matrix" values="0 0 0 0 0,
    0 0 0 0 0,
    0 0 0 0 0,
    0 0 0 -1.7 1.8" in="Texture_10"></feColorMatrix>
    <!-- Texture -->

    <!-- FILL -->
    <feOffset dx="-3" dy="4" in="SourceAlpha" result="FILL_10"></feOffset>
    <feDisplacementMap scale="17" in="FILL_10" in2="Texture_10" result="FILL_20"></feDisplacementMap>
    <feComposite operator="in" in="Texture_30" in2="FILL_20" result="FILL_40"></feComposite>
    <feComposite operator="in" in="COLOR-blu" in2="FILL_40" result="FILL_50"></feComposite>
    <!-- FILL END-->

    <!-- OUTLINE -->
    <feMorphology operator="dilate" radius="3" in="SourceGraphic" result="OUTLINE_10"></feMorphology>
    <feComposite operator="out" in="OUTLINE_10" in2="SourceGraphic" result="OUTLINE_20"></feComposite>
    <feDisplacementMap scale="7" in="OUTLINE_20" in2="Texture_10" result="OUTLINE_30"></feDisplacementMap>
    <feComposite operator="arithmetic" k2="-1" k3="1" in="Texture_20" in2="OUTLINE_30" result="OUTLINE_40"></feComposite>
    <!-- OUTLINE END-->

    <!-- BEVEL OUTLINE -->
    <feConvolveMatrix order="8,8" divisor="1" kernelMatrix="1 0 0 0 0 0 0 0 0 1 0 0 0 0 0 0 0 0 1 0 0 0 0 0 0 0 0 1 0 0 0 0 0 0 0 0 1 0 0 0 0 0 0 0 0 1 0 0 0 0 0 0 0 0 1 0 0 0 0 0 0 0 0 1 " in="SourceGraphic" result="BEVEL_10"></feConvolveMatrix>
    <feMorphology operator="dilate" radius="2" in="BEVEL_10" result="BEVEL_20"></feMorphology>
    <feComposite operator="out" in="BEVEL_20" in2="BEVEL_10" result="BEVEL_30"></feComposite>
    <feDisplacementMap scale="7" in="BEVEL_30" in2="Texture_10" result="BEVEL_40"></feDisplacementMap>
    <feComposite operator="arithmetic" k2="-1" k3="1" in="Texture_20" in2="BEVEL_40" result="BEVEL_50"></feComposite>
    <feOffset dx="-7" dy="-7" in="BEVEL_50" result="BEVEL_60"></feOffset>
    <feComposite operator="out" in="BEVEL_60" in2="OUTLINE_10" result="BEVEL_70"></feComposite>
    <!-- BEVEL OUTLINE END -->

    <!-- BEVEL FILL -->
    <feOffset dx="-9" dy="-9" in="BEVEL_10" result="BEVEL-FILL_10"></feOffset>
    <feComposite operator="out" in="BEVEL-FILL_10" in2="OUTLINE_10" result="BEVEL-FILL_20"></feComposite>
    <feDisplacementMap scale="17" in="BEVEL-FILL_20" in2="Texture_10" result="BEVEL-FILL_30"></feDisplacementMap>
    <feComposite operator="in" in="COLOR-red" in2="BEVEL-FILL_30" result="BEVEL-FILL_50"></feComposite> <!-- -->
    <!-- BEVEL FILL END-->

    <feMerge result="merge2">
     <feMergeNode in="BEVEL-FILL_50"></feMergeNode>
     <feMergeNode in="BEVEL_70"></feMergeNode>
     <feMergeNode in="FILL_50"></feMergeNode>
      <feMergeNode in="OUTLINE_40"></feMergeNode>
    </feMerge>
  </filter>
</defs>
  <g filter="url(#editing-scratch)">
  <g transform="translate(-123.97501710057259, 95.94499969482422)">
  <path d="M17.55-3.38L17.55-3.38L17.55-3.38Q17.55-6.52 18.81-12.82L18.81-12.82L12.15-12.82L9.67 0L0.27 0L5.98-29.70L15.48-29.70L12.87-16.43L19.53-16.43L22.00-29.70L31.50-29.70L31.50-29.70Q30.87-26.37 30.06-22.63L30.06-22.63L28.53-15.30L28.53-15.30Q26.82-6.75 26.82-3.01L26.82-3.01L26.82-3.01Q26.82-1.48 27.31-0.63L27.31-0.63L27.31-0.63Q25.06 0.90 22.43 0.90L22.43 0.90L22.43 0.90Q19.80 0.90 18.68-0.36L18.68-0.36L18.68-0.36Q17.55-1.62 17.55-3.38ZM50.80-7.60L50.80-7.60L50.80-7.60Q51.93-6.84 51.93-5.15L51.93-5.15L51.93-5.15Q51.93-3.46 51.07-2.38L51.07-2.38L51.07-2.38Q50.22-1.30 48.82-0.58L48.82-0.58L48.82-0.58Q45.94 0.90 42.84 0.90L42.84 0.90L42.84 0.90Q39.73 0.90 37.91 0.22L37.91 0.22L37.91 0.22Q36.09-0.45 34.88-1.71L34.88-1.71L34.88-1.71Q32.49-4.09 32.49-8.46L32.49-8.46L32.49-8.46Q32.49-15.25 36.18-19.39L36.18-19.39L36.18-19.39Q40.14-23.85 47.02-23.85L47.02-23.85L47.02-23.85Q51.30-23.85 53.41-22.05L53.41-22.05L53.41-22.05Q54.99-20.70 54.99-18.50L54.99-18.50L54.99-18.50Q54.99-10.57 41.31-10.57L41.31-10.57L41.31-10.57Q41.13-9.40 41.13-8.41L41.13-8.41L41.13-8.41Q41.13-6.34 42.05-5.56L42.05-5.56L42.05-5.56Q42.97-4.77 44.68-4.77L44.68-4.77L44.68-4.77Q46.39-4.77 48.22-5.56L48.22-5.56L48.22-5.56Q50.04-6.34 50.80-7.60ZM41.63-12.51L41.63-12.51L41.63-12.51Q44.82-12.51 46.66-14.49L46.66-14.49L46.66-14.49Q48.51-16.38 48.51-19.39L48.51-19.39L48.51-19.39Q48.51-20.43 48.13-20.99L48.13-20.99L48.13-20.99Q47.74-21.55 46.98-21.55L46.98-21.55L46.98-21.55Q46.21-21.55 45.56-21.26L45.56-21.26L45.56-21.26Q44.91-20.97 44.23-19.98L44.23-19.98L44.23-19.98Q42.57-17.73 41.63-12.51ZM70.83-5.08L70.83-5.08L70.83-5.08Q68.49-2.65 64.21-2.65L64.21-2.65L64.21-2.65Q58.86-2.65 57.73-6.57L57.73-6.57L57.73-6.57Q57.37-7.74 57.37-9.04L57.37-9.04L57.37-9.04Q57.37-10.35 57.64-11.70L57.64-11.70L59.76-22.95L68.89-23.85L66.42-10.75L66.42-10.75Q66.33-10.17 66.19-9.54L66.19-9.54L66.19-9.54Q66.06-8.91 66.06-8.26L66.06-8.26L66.06-8.26Q66.06-7.60 66.28-7.18L66.28-7.18L66.28-7.18Q66.51-6.75 66.82-6.48L66.82-6.48L66.82-6.48Q67.36-6.12 68.33-6.12L68.33-6.12L68.33-6.12Q69.30-6.12 70.13-7.29L70.13-7.29L70.13-7.29Q70.96-8.46 71.37-10.48L71.37-10.48L73.84-22.95L82.71-23.85L79.33-6.17L79.33-6.17Q77.67 2.48 74.25 5.89L74.25 5.89L74.25 5.89Q72.49 7.65 70.22 8.35L70.22 8.35L70.22 8.35Q67.95 9.04 65.02 9.04L65.02 9.04L65.02 9.04Q60.30 9.04 57.60 7.56L57.60 7.56L57.60 7.56Q54.90 6.08 54.90 3.60L54.90 3.60L54.90 3.60Q54.90 1.75 56.29 0.70L56.29 0.70L56.29 0.70Q57.69-0.36 59.85-0.36L59.85-0.36L59.85-0.36Q61.74-0.36 63.18 0.45L63.18 0.45L63.18 0.45Q64.03 0.94 64.44 1.57L64.44 1.57L64.44 1.57Q63.40 2.48 63.40 3.96L63.40 3.96L63.40 3.96Q63.40 5.94 65.20 5.94L65.20 5.94L65.20 5.94Q68.17 5.94 69.88-0.90L69.88-0.90L69.88-0.90Q70.38-2.92 70.83-5.08ZM85.55-7.74L85.55-7.74L85.55-7.74Q84.55-9 84.55-10.28L84.55-10.28L84.55-10.28Q84.55-11.56 85.86-12.44L85.86-12.44L85.86-12.44Q87.16-13.32 89.55-13.32L89.55-13.32L89.55-13.32Q90.63-13.32 92.02-13.05L92.02-13.05L94.91-12.51L97.56-11.92L97.56-11.92Q98.82-11.65 99.67-11.65L99.67-11.65L99.67-11.65Q100.53-11.65 101.47-12.04L101.47-12.04L101.47-12.04Q102.42-12.42 102.78-13.09L102.78-13.09L102.78-13.09Q103.72-12.01 103.72-10.66L103.72-10.66L103.72-10.66Q103.72-9.31 102.44-8.37L102.44-8.37L102.44-8.37Q101.16-7.42 98.86-7.42L98.86-7.42L98.86-7.42Q97.60-7.42 95.00-7.96L95.00-7.96L95.00-7.96Q90-9 88.99-9L88.99-9L88.99-9Q87.97-9 86.96-8.66L86.96-8.66L86.96-8.66Q85.95-8.32 85.55-7.74ZM117.41-27.90L117.41-27.90L117.41-27.90Q118.03-29.16 119.41-29.86L119.41-29.86L119.41-29.86Q120.78-30.55 122.67-30.55L122.67-30.55L122.67-30.55Q125.64-30.55 127.42-28.42L127.42-28.42L127.42-28.42Q129.19-26.28 129.19-21.60L129.19-21.60L129.19-5.54L139.50-29.65L144.81-29.65L146.03-6.88L145.89-5.58L156.60-29.65L162.76-29.65L148.37 0L138.78 0L137.88-13.68L131.94 0L121.09 0L119.75-21.60L119.75-21.60Q119.61-24.03 118.96-25.63L118.96-25.63L118.96-25.63Q118.31-27.22 117.41-27.90ZM178.29-7.60L178.29-7.60L178.29-7.60Q179.42-6.84 179.42-5.15L179.42-5.15L179.42-5.15Q179.42-3.46 178.56-2.38L178.56-2.38L178.56-2.38Q177.71-1.30 176.31-0.58L176.31-0.58L176.31-0.58Q173.43 0.90 170.33 0.90L170.33 0.90L170.33 0.90Q167.22 0.90 165.40 0.22L165.40 0.22L165.40 0.22Q163.58-0.45 162.36-1.71L162.36-1.71L162.36-1.71Q159.98-4.09 159.98-8.46L159.98-8.46L159.98-8.46Q159.98-15.25 163.67-19.39L163.67-19.39L163.67-19.39Q167.63-23.85 174.51-23.85L174.51-23.85L174.51-23.85Q178.79-23.85 180.90-22.05L180.90-22.05L180.90-22.05Q182.48-20.70 182.48-18.50L182.48-18.50L182.48-18.50Q182.48-10.57 168.80-10.57L168.80-10.57L168.80-10.57Q168.62-9.40 168.62-8.41L168.62-8.41L168.62-8.41Q168.62-6.34 169.54-5.56L169.54-5.56L169.54-5.56Q170.46-4.77 172.17-4.77L172.17-4.77L172.17-4.77Q173.88-4.77 175.70-5.56L175.70-5.56L175.70-5.56Q177.53-6.34 178.29-7.60ZM169.11-12.51L169.11-12.51L169.11-12.51Q172.31-12.51 174.15-14.49L174.15-14.49L174.15-14.49Q176.00-16.38 176.00-19.39L176.00-19.39L176.00-19.39Q176.00-20.43 175.61-20.99L175.61-20.99L175.61-20.99Q175.23-21.55 174.47-21.55L174.47-21.55L174.47-21.55Q173.70-21.55 173.05-21.26L173.05-21.26L173.05-21.26Q172.40-20.97 171.72-19.98L171.72-19.98L171.72-19.98Q170.06-17.73 169.11-12.51ZM194.76-2.48L194.76-2.48L194.76-2.48Q193.37 0.90 188.91 0.90L188.91 0.90L188.91 0.90Q186.66 0.90 185.22-0.67L185.22-0.67L185.22-0.67Q184.05-1.98 184.05-3.46L184.05-3.46L184.05-3.46Q184.05-6.84 185.63-14.22L185.63-14.22L188.91-31.50L198.05-32.40L193.68-9.63L193.68-9.63Q192.92-6.30 192.92-5.13L192.92-5.13L192.92-5.13Q192.92-2.56 194.76-2.48ZM220.68-18.72L220.68-18.72L220.68-18.72Q220.68-16.83 219.11-15.66L219.11-15.66L219.11-15.66Q217.53-14.49 214.97-14.49L214.97-14.49L214.97-14.49Q213.89-14.49 213.26-14.80L213.26-14.80L213.26-14.80Q213.75-15.97 213.91-17.44L213.91-17.44L213.91-17.44Q214.07-18.90 214.07-19.30L214.07-19.30L214.07-19.30Q214.07-21.20 212.76-21.20L212.76-21.20L212.76-21.20Q211.86-21.20 210.85-20.07L210.85-20.07L210.85-20.07Q209.84-18.95 208.98-17.19L208.98-17.19L208.98-17.19Q207.09-13.14 207.09-9.04L207.09-9.04L207.09-9.04Q207.09-6.79 207.95-5.78L207.95-5.78L207.95-5.78Q208.80-4.77 210.69-4.77L210.69-4.77L210.69-4.77Q213.30-4.77 215.37-6.93L215.37-6.93L215.37-6.93Q215.96-7.60 216.27-8.37L216.27-8.37L216.27-8.37Q217.98-7.47 217.98-5.00L217.98-5.00L217.98-5.00Q217.98-2.48 215.19-0.81L215.19-0.81L215.19-0.81Q212.31 0.90 207.72 0.90L207.72 0.90L207.72 0.90Q198.59 0.90 198.59-8.78L198.59-8.78L198.59-8.78Q198.59-15.84 202.59-19.89L202.59-19.89L202.59-19.89Q206.46-23.85 213.57-23.85L213.57-23.85L213.57-23.85Q220.68-23.85 220.68-18.72ZM231.71 0.90L231.71 0.90L231.71 0.90Q221.81 0.90 221.81-8.41L221.81-8.41L221.81-8.41Q221.81-15.03 225.45-19.30L225.45-19.30L225.45-19.30Q229.32-23.85 236.03-23.85L236.03-23.85L236.03-23.85Q240.89-23.85 243.36-21.60L243.36-21.60L243.36-21.60Q245.84-19.35 245.84-14.63L245.84-14.63L245.84-14.63Q245.84-7.42 241.97-3.24L241.97-3.24L241.97-3.24Q238.19 0.90 231.71 0.90ZM232.88-18.68L232.88-18.68L232.88-18.68Q232.34-17.46 231.91-15.64L231.91-15.64L231.91-15.64Q231.48-13.81 230.94-10.93L230.94-10.93L230.94-10.93Q230.40-8.05 230.40-4.50L230.40-4.50L230.40-4.50Q230.40-3.33 230.78-2.56L230.78-2.56L230.78-2.56Q231.17-1.80 232.20-1.80L232.20-1.80L232.20-1.80Q233.24-1.80 233.89-2.29L233.89-2.29L233.89-2.29Q234.54-2.79 235.04-3.96L235.04-3.96L235.04-3.96Q235.94-6.03 236.66-9.88L236.66-9.88L236.66-9.88Q237.38-13.72 237.44-15.39L237.44-15.39L237.44-15.39Q237.51-17.05 237.51-18.29L237.51-18.29L237.51-18.29Q237.51-19.53 237.15-20.34L237.15-20.34L237.15-20.34Q236.79-21.15 235.78-21.15L235.78-21.15L235.78-21.15Q234.77-21.15 234.09-20.52L234.09-20.52L234.09-20.52Q233.42-19.89 232.88-18.68ZM280.89 0.90L280.89 0.90L280.89 0.90Q275.45 0.90 275.45-3.33L275.45-3.33L275.45-3.33Q275.45-5.17 276.23-8.75L276.23-8.75L276.23-8.75Q277.02-12.33 277.29-13.77L277.29-13.77L277.29-13.77Q277.92-17.05 277.92-18.09L277.92-18.09L277.92-18.09Q277.92-20.38 276.21-20.38L276.21-20.38L276.21-20.38Q275.09-20.38 274.00-18.83L274.00-18.83L274.00-18.83Q272.93-17.28 272.43-14.17L272.43-14.17L269.64 0L260.87 0.90L263.30-11.34L263.30-11.34Q263.70-13.37 264.06-15.66L264.06-15.66L264.06-15.66Q264.42-17.95 264.42-18.31L264.42-18.31L264.42-18.31Q264.42-20.38 262.89-20.38L262.89-20.38L262.89-20.38Q261.86-20.38 260.73-18.86L260.73-18.86L260.73-18.86Q259.61-17.32 258.98-14.17L258.98-14.17L256.23 0L247.37 0.90L252.09-22.95L259.43-23.85L258.66-19.30L258.66-19.30Q259.83-21.73 261.99-22.79L261.99-22.79L261.99-22.79Q264.15-23.85 267.53-23.85L267.53-23.85L267.53-23.85Q269.46-23.85 270.72-22.90L270.72-22.90L270.72-22.90Q271.98-21.96 272.39-20.43L272.39-20.43L272.39-20.43Q273.15-22.00 275.11-22.93L275.11-22.93L275.11-22.93Q277.06-23.85 279.47-23.85L279.47-23.85L279.47-23.85Q281.88-23.85 283.07-23.33L283.07-23.33L283.07-23.33Q284.27-22.81 284.99-21.96L284.99-21.96L284.99-21.96Q286.20-20.38 286.20-17.50L286.20-17.50L286.20-17.50Q286.20-14.67 284.99-8.78L284.99-8.78L284.99-8.78Q284.36-5.89 284.36-4.84L284.36-4.84L284.36-4.84Q284.36-3.78 284.96-3.15L284.96-3.15L284.96-3.15Q285.57-2.52 286.47-2.43L286.47-2.43L286.47-2.43Q286.02-0.90 284.47 0L284.47 0L284.47 0Q282.92 0.90 280.89 0.90ZM308.16-7.60L308.16-7.60L308.16-7.60Q309.29-6.84 309.29-5.15L309.29-5.15L309.29-5.15Q309.29-3.46 308.43-2.38L308.43-2.38L308.43-2.38Q307.57-1.30 306.18-0.58L306.18-0.58L306.18-0.58Q303.30 0.90 300.19 0.90L300.19 0.90L300.19 0.90Q297.09 0.90 295.27 0.22L295.27 0.22L295.27 0.22Q293.44-0.45 292.23-1.71L292.23-1.71L292.23-1.71Q289.85-4.09 289.85-8.46L289.85-8.46L289.85-8.46Q289.85-15.25 293.54-19.39L293.54-19.39L293.54-19.39Q297.50-23.85 304.38-23.85L304.38-23.85L304.38-23.85Q308.66-23.85 310.77-22.05L310.77-22.05L310.77-22.05Q312.35-20.70 312.35-18.50L312.35-18.50L312.35-18.50Q312.35-10.57 298.67-10.57L298.67-10.57L298.67-10.57Q298.49-9.40 298.49-8.41L298.49-8.41L298.49-8.41Q298.49-6.34 299.41-5.56L299.41-5.56L299.41-5.56Q300.33-4.77 302.04-4.77L302.04-4.77L302.04-4.77Q303.75-4.77 305.57-5.56L305.57-5.56L305.57-5.56Q307.40-6.34 308.16-7.60ZM298.98-12.51L298.98-12.51L298.98-12.51Q302.18-12.51 304.02-14.49L304.02-14.49L304.02-14.49Q305.87-16.38 305.87-19.39L305.87-19.39L305.87-19.39Q305.87-20.43 305.48-20.99L305.48-20.99L305.48-20.99Q305.10-21.55 304.34-21.55L304.34-21.55L304.34-21.55Q303.57-21.55 302.92-21.26L302.92-21.26L302.92-21.26Q302.26-20.97 301.59-19.98L301.59-19.98L301.59-19.98Q299.93-17.73 298.98-12.51ZM323.87-4.50L323.87-4.50L323.87-4.50Q323.87-5.71 324.50-8.78L324.50-8.78L326.88-20.93L324.23-20.93L324.40-22.27L324.40-22.27Q329.81-23.89 335.02-27.86L335.02-27.86L337.19-27.86L336.11-22.95L339.62-22.95L339.21-20.93L335.75-20.93L333.45-8.78L333.45-8.78Q332.87-5.98 332.87-5.04L332.87-5.04L332.87-5.04Q332.87-2.88 334.75-2.43L334.75-2.43L334.75-2.43Q334.31-0.90 332.69 0L332.69 0L332.69 0Q331.06 0.90 328.77 0.90L328.77 0.90L328.77 0.90Q326.48 0.90 325.17-0.54L325.17-0.54L325.17-0.54Q323.87-1.98 323.87-4.50ZM349.02 0.90L349.02 0.90L349.02 0.90Q339.12 0.90 339.12-8.41L339.12-8.41L339.12-8.41Q339.12-15.03 342.76-19.30L342.76-19.30L342.76-19.30Q346.63-23.85 353.34-23.85L353.34-23.85L353.34-23.85Q358.20-23.85 360.68-21.60L360.68-21.60L360.68-21.60Q363.15-19.35 363.15-14.63L363.15-14.63L363.15-14.63Q363.15-7.42 359.28-3.24L359.28-3.24L359.28-3.24Q355.50 0.90 349.02 0.90ZM350.19-18.68L350.19-18.68L350.19-18.68Q349.65-17.46 349.22-15.64L349.22-15.64L349.22-15.64Q348.80-13.81 348.25-10.93L348.25-10.93L348.25-10.93Q347.71-8.05 347.71-4.50L347.71-4.50L347.71-4.50Q347.71-3.33 348.10-2.56L348.10-2.56L348.10-2.56Q348.48-1.80 349.51-1.80L349.51-1.80L349.51-1.80Q350.55-1.80 351.20-2.29L351.20-2.29L351.20-2.29Q351.86-2.79 352.35-3.96L352.35-3.96L352.35-3.96Q353.25-6.03 353.97-9.88L353.97-9.88L353.97-9.88Q354.69-13.72 354.76-15.39L354.76-15.39L354.76-15.39Q354.82-17.05 354.82-18.29L354.82-18.29L354.82-18.29Q354.82-19.53 354.46-20.34L354.46-20.34L354.46-20.34Q354.11-21.15 353.09-21.15L353.09-21.15L353.09-21.15Q352.08-21.15 351.40-20.52L351.40-20.52L351.40-20.52Q350.73-19.89 350.19-18.68ZM379.35 0L381.96-13.23L381.96-13.23Q380.65-25.43 376.06-28.04L376.06-28.04L376.06-28.04Q377.01-29.20 378.54-29.86L378.54-29.86L378.54-29.86Q380.07-30.51 381.91-30.51L381.91-30.51L381.91-30.51Q383.76-30.51 385.15-29.86L385.15-29.86L385.15-29.86Q386.55-29.20 387.45-27.81L387.45-27.81L387.45-27.81Q389.16-25.15 389.16-18.81L389.16-18.81L389.16-15.57L389.16-15.57Q391.86-23.49 394.56-26.91L394.56-26.91L394.56-26.91Q397.30-30.42 400.72-30.42L400.72-30.42L400.72-30.42Q402.07-30.42 402.97-29.72L402.97-29.72L402.97-29.72Q403.87-29.02 404.32-27.99L404.32-27.99L404.32-27.99Q400.86-26.46 397.53-22.05L397.53-22.05L397.53-22.05Q394.20-17.64 392.04-11.47L392.04-11.47L389.38 0L379.35 0ZM416.34-1.89L416.34-1.89L416.34-1.89Q414.18 0.90 408.82 0.90L408.82 0.90L408.82 0.90Q406.03 0.90 404.01-0.79L404.01-0.79L404.01-0.79Q401.98-2.48 401.98-4.91L401.98-4.91L401.98-4.91Q401.98-6.25 402.12-6.93L402.12-6.93L405.13-22.95L414.27-23.85L410.98-6.48L410.98-6.48Q410.80-5.49 410.80-4.91L410.80-4.91L410.80-4.91Q410.80-2.29 412.38-2.29L412.38-2.29L412.38-2.29Q414.13-2.29 415.39-4.68L415.39-4.68L415.39-4.68Q415.80-5.44 415.98-6.43L415.98-6.43L419.17-22.95L428.04-23.85L424.71-6.30L424.71-6.30Q424.57-5.63 424.57-4.91L424.57-4.91L424.57-4.91Q424.57-4.18 424.98-3.40L424.98-3.40L424.98-3.40Q425.38-2.61 426.69-2.43L426.69-2.43L426.69-2.43Q426.42-1.35 425.47-0.63L425.47-0.63L425.47-0.63Q423.49 0.90 421.36 0.90L421.36 0.90L421.36 0.90Q419.22 0.90 417.96 0.14L417.96 0.14L417.96 0.14Q416.70-0.63 416.34-1.89ZM453.10-5.00L453.10-5.00L453.10-5.00Q453.10-3.01 455.13-2.43L455.13-2.43L455.13-2.43Q454.63-0.77 452.70 0.14L452.70 0.14L452.70 0.14Q451.08 0.90 449.30 0.90L449.30 0.90L449.30 0.90Q447.52 0.90 446.60 0.43L446.60 0.43L446.60 0.43Q445.68-0.04 445.18-0.81L445.18-0.81L445.18-0.81Q444.37-1.98 444.37-4.18L444.37-4.18L444.37-4.18Q444.37-5.49 445.09-9.09L445.09-9.09L445.72-12.51L445.72-12.51Q446.49-16.43 446.49-17.86L446.49-17.86L446.49-17.86Q446.49-20.38 445.09-20.38L445.09-20.38L445.09-20.38Q443.34-20.38 442.21-17.82L442.21-17.82L442.21-17.82Q441.76-16.83 441.45-15.34L441.45-15.34L438.39 0L429.34 0.90L435.69-31.50L444.73-32.40L444.37-30.60L444.37-30.60Q443.11-23.67 442.03-21.33L442.03-21.33L442.03-21.33Q444.55-23.85 449.19-23.85L449.19-23.85L449.19-23.85Q454.09-23.85 454.99-20.61L454.99-20.61L454.99-20.61Q455.31-19.57 455.31-18.68L455.31-18.68L455.31-18.68Q455.31-17.77 455.24-17.08L455.24-17.08L455.24-17.08Q455.17-16.38 454.95-15.12L454.95-15.12L454.36-11.88L453.33-6.79L453.33-6.79Q453.10-5.76 453.10-5.00ZM460.73-1.35L460.73-1.35L460.73-1.35Q459.67-2.52 459.20-4.37L459.20-4.37L459.20-4.37Q458.73-6.21 458.73-9.22L458.73-9.22L458.73-9.22Q458.73-12.24 459.76-14.98L459.76-14.98L459.76-14.98Q460.80-17.73 462.69-19.71L462.69-19.71L462.69-19.71Q466.56-23.85 472.95-23.85L472.95-23.85L472.95-23.85Q475.24-23.85 476.91-23.09L476.91-23.09L484.60-23.85L481.27-6.30L481.27-6.30Q481.14-5.76 481.14-4.77L481.14-4.77L481.14-4.77Q481.14-3.78 481.75-3.15L481.75-3.15L481.75-3.15Q482.35-2.52 483.25-2.43L483.25-2.43L483.25-2.43Q482.80-0.90 481.16 0L481.16 0L481.16 0Q479.52 0.90 477.67 0.90L477.67 0.90L477.67 0.90Q475.83 0.90 474.59 0.20L474.59 0.20L474.59 0.20Q473.35-0.49 472.99-1.67L472.99-1.67L472.99-1.67Q472.27-0.54 470.74 0.18L470.74 0.18L470.74 0.18Q469.21 0.90 467.17 0.90L467.17 0.90L467.17 0.90Q465.12 0.90 463.45 0.36L463.45 0.36L463.45 0.36Q461.79-0.18 460.73-1.35ZM470.23-19.62L470.23-19.62L470.23-19.62Q469.71-18.81 469.26-17.44L469.26-17.44L469.26-17.44Q468.81-16.06 468.07-12.40L468.07-12.40L468.07-12.40Q467.32-8.73 467.32-6.12L467.32-6.12L467.32-6.12Q467.32-3.51 467.73-2.75L467.73-2.75L467.73-2.75Q468.13-1.98 468.85-1.98L468.85-1.98L468.85-1.98Q470.29-1.98 471.35-3.35L471.35-3.35L471.35-3.35Q472.41-4.72 472.81-7.15L472.81-7.15L475.20-20.34L475.20-20.34Q474.25-21.15 473.15-21.15L473.15-21.15L473.15-21.15Q472.05-21.15 471.40-20.79L471.40-20.79L471.40-20.79Q470.74-20.43 470.23-19.62ZM506.07 0.90L506.07 0.90L506.07 0.90Q500.62 0.90 500.62-3.33L500.62-3.33L500.62-3.33Q500.67-4.50 501.03-6.48L501.03-6.48L501.84-10.62L501.84-10.62Q503.05-16.47 503.05-17.77L503.05-17.77L503.05-17.77Q503.05-20.38 501.52-20.38L501.52-20.38L501.52-20.38Q498.96-20.38 497.61-13.68L497.61-13.68L494.95 0L485.91 0.90L490.59-22.99L497.97-23.85L497.25-19.44L497.25-19.44Q499.36-23.85 505.84-23.85L505.84-23.85L505.84-23.85Q508.99-23.85 510.32-22.52L510.32-22.52L510.32-22.52Q511.65-21.20 511.65-18.22L511.65-18.22L511.65-18.22Q511.65-15.43 510.21-8.91L510.21-8.91L510.21-8.91Q509.53-5.98 509.53-4.88L509.53-4.88L509.53-4.88Q509.53-3.78 510.14-3.15L510.14-3.15L510.14-3.15Q510.75-2.52 511.65-2.43L511.65-2.43L511.65-2.43Q511.20-0.90 509.65 0L509.65 0L509.65 0Q508.09 0.90 506.07 0.90ZM521.77-20.75L517.00-20.75L517.00-20.75Q518.67-26.50 518.76-32.58L518.76-32.58L520.06-32.76L520.06-32.76Q520.74-32.85 521.23-32.85L521.23-32.85L521.23-32.85Q523.21-32.85 524.29-31.88L524.29-31.88L524.29-31.88Q525.37-30.91 525.37-29.20L525.37-29.20L525.37-29.20Q525.37-27.40 524.56-25.43L524.56-25.43L524.56-25.43Q523.12-21.91 521.77-20.75L521.77-20.75ZM538.29-15.79L538.29-15.79L538.29-15.79Q538.92-17.46 538.92-18.90L538.92-18.90L538.92-18.90Q538.92-21.55 536.76-21.55L536.76-21.55L536.76-21.55Q535.63-21.55 534.71-20.54L534.71-20.54L534.71-20.54Q533.79-19.53 533.79-18.27L533.79-18.27L533.79-18.27Q533.79-17.37 534.51-16.65L534.51-16.65L534.51-16.65Q535.54-15.66 538.20-14.04L538.20-14.04L538.20-14.04Q540.85-12.42 541.87-11.09L541.87-11.09L541.87-11.09Q542.88-9.76 542.88-7.94L542.88-7.94L542.88-7.94Q542.88-6.12 542.00-4.46L542.00-4.46L542.00-4.46Q541.12-2.79 539.55-1.62L539.55-1.62L539.55-1.62Q536.17 0.90 530.77 0.90L530.77 0.90L530.77 0.90Q527.85 0.90 525.60-0.63L525.60-0.63L525.60-0.63Q523.35-2.11 523.35-3.87L523.35-3.87L523.35-3.87Q523.35-5.63 524.63-6.66L524.63-6.66L524.63-6.66Q525.91-7.69 527.80-7.69L527.80-7.69L527.80-7.69Q529.69-7.69 530.86-6.97L530.86-6.97L530.86-6.97Q530.28-5.49 530.28-4.50L530.28-4.50L530.28-4.50Q530.28-1.53 532.80-1.53L532.80-1.53L532.80-1.53Q533.88-1.53 534.60-2.21L534.60-2.21L534.60-2.21Q535.32-2.88 535.32-4.05L535.32-4.05L535.32-4.05Q535.32-6.34 531.45-8.78L531.45-8.78L531.45-8.78Q528.30-10.84 527.58-11.65L527.58-11.65L527.58-11.65Q526.36-13.09 526.36-14.89L526.36-14.89L526.36-14.89Q526.36-16.70 527.22-18.40L527.22-18.40L527.22-18.40Q528.07-20.11 529.65-21.33L529.65-21.33L529.65-21.33Q532.93-23.85 538.65-23.85L538.65-23.85L538.65-23.85Q541.57-23.85 543.31-22.68L543.31-22.68L543.31-22.68Q545.04-21.51 545.04-19.53L545.04-19.53L545.04-19.53Q545.04-17.55 543.85-16.43L543.85-16.43L543.85-16.43Q542.65-15.30 540.49-15.30L540.49-15.30L540.49-15.30Q539.01-15.30 538.29-15.79ZM573.57-30.02L573.57-30.02L573.57-30.02Q584.59-30.02 584.59-22.23L584.59-22.23L584.59-22.23Q584.59-17.95 581.85-15.39L581.85-15.39L581.85-15.39Q579.15-12.82 574.42-12.82L574.42-12.82L574.42-12.82Q572.22-12.82 570.51-14.08L570.51-14.08L570.51-14.08Q569.70-14.63 569.16-15.34L569.16-15.34L569.16-15.34Q572.44-15.34 574.18-17.35L574.18-17.35L574.18-17.35Q575.91-19.35 575.91-23.27L575.91-23.27L575.91-23.27Q575.91-27.18 572.04-27.18L572.04-27.18L570.96-27.18L570.96-27.18Q570.69-27.18 570.46-27.13L570.46-27.13L565.29 0L555.52 0L561.06-29.47L561.06-29.47Q565.87-29.92 568.66-29.97L568.66-29.97L568.66-29.97Q571.45-30.02 573.57-30.02ZM594.63 0.90L594.63 0.90L594.63 0.90Q584.73 0.90 584.73-8.41L584.73-8.41L584.73-8.41Q584.73-15.03 588.37-19.30L588.37-19.30L588.37-19.30Q592.24-23.85 598.95-23.85L598.95-23.85L598.95-23.85Q603.81-23.85 606.28-21.60L606.28-21.60L606.28-21.60Q608.76-19.35 608.76-14.63L608.76-14.63L608.76-14.63Q608.76-7.42 604.89-3.24L604.89-3.24L604.89-3.24Q601.11 0.90 594.63 0.90ZM595.80-18.68L595.80-18.68L595.80-18.68Q595.26-17.46 594.83-15.64L594.83-15.64L594.83-15.64Q594.40-13.81 593.86-10.93L593.86-10.93L593.86-10.93Q593.32-8.05 593.32-4.50L593.32-4.50L593.32-4.50Q593.32-3.33 593.71-2.56L593.71-2.56L593.71-2.56Q594.09-1.80 595.12-1.80L595.12-1.80L595.12-1.80Q596.16-1.80 596.81-2.29L596.81-2.29L596.81-2.29Q597.46-2.79 597.96-3.96L597.96-3.96L597.96-3.96Q598.86-6.03 599.58-9.88L599.58-9.88L599.58-9.88Q600.30-13.72 600.37-15.39L600.37-15.39L600.37-15.39Q600.43-17.05 600.43-18.29L600.43-18.29L600.43-18.29Q600.43-19.53 600.07-20.34L600.07-20.34L600.07-20.34Q599.71-21.15 598.70-21.15L598.70-21.15L598.70-21.15Q597.69-21.15 597.01-20.52L597.01-20.52L597.01-20.52Q596.34-19.89 595.80-18.68ZM625.50-12.64L625.50-12.64L625.50-12.64Q627.12-15.52 627.12-18.45L627.12-18.45L627.12-18.45Q627.12-20.38 625.72-20.38L625.72-20.38L625.72-20.38Q624.64-20.38 623.52-18.54L623.52-18.54L623.52-18.54Q622.35-16.70 621.99-14.31L621.99-14.31L619.65 0L610.33 0.90L614.92-22.95L622.35-23.85L621.54-19.30L621.54-19.30Q623.74-23.85 628.69-23.85L628.69-23.85L628.69-23.85Q631.30-23.85 632.72-22.50L632.72-22.50L632.72-22.50Q634.14-21.15 634.14-18.38L634.14-18.38L634.14-18.38Q634.14-15.62 632.32-13.86L632.32-13.86L632.32-13.86Q630.49-12.11 627.39-12.11L627.39-12.11L627.39-12.11Q626.04-12.11 625.50-12.64ZM635.58-4.50L635.58-4.50L635.58-4.50Q635.58-5.71 636.21-8.78L636.21-8.78L638.59-20.93L635.94-20.93L636.12-22.27L636.12-22.27Q641.52-23.89 646.74-27.86L646.74-27.86L648.90-27.86L647.82-22.95L651.33-22.95L650.92-20.93L647.46-20.93L645.16-8.78L645.16-8.78Q644.58-5.98 644.58-5.04L644.58-5.04L644.58-5.04Q644.58-2.88 646.47-2.43L646.47-2.43L646.47-2.43Q646.02-0.90 644.40 0L644.40 0L644.40 0Q642.78 0.90 640.48 0.90L640.48 0.90L640.48 0.90Q638.19 0.90 636.88-0.54L636.88-0.54L636.88-0.54Q635.58-1.98 635.58-4.50ZM668.65-26.10L668.65-26.10L668.65-26.10Q669.28-27.18 669.28-28.35L669.28-28.35L669.28-28.35Q669.28-30.42 668.02-30.42L668.02-30.42L668.02-30.42Q666.09-30.42 665.28-26.46L665.28-26.46L664.60-22.95L668.70-22.95L668.43-20.93L664.20-20.93L660.15 0L651.06 0.90L655.38-20.93L652.18-20.93L652.59-22.95L655.74-22.95L656.68-26.50L656.68-26.50Q657.49-29.79 660.96-31.32L660.96-31.32L660.96-31.32Q663.48-32.40 667.71-32.40L667.71-32.40L667.71-32.40Q671.94-32.40 673.83-31.32L673.83-31.32L673.83-31.32Q675.72-30.24 675.72-28.80L675.72-28.80L675.72-28.80Q675.72-27.36 674.59-26.46L674.59-26.46L674.59-26.46Q673.47-25.56 672.21-25.56L672.21-25.56L672.21-25.56Q669.73-25.56 668.65-26.10ZM677.75 0.90L677.75 0.90L677.75 0.90Q667.84 0.90 667.84-8.41L667.84-8.41L667.84-8.41Q667.84-15.03 671.49-19.30L671.49-19.30L671.49-19.30Q675.36-23.85 682.06-23.85L682.06-23.85L682.06-23.85Q686.92-23.85 689.40-21.60L689.40-21.60L689.40-21.60Q691.88-19.35 691.88-14.63L691.88-14.63L691.88-14.63Q691.88-7.42 688.00-3.24L688.00-3.24L688.00-3.24Q684.22 0.90 677.75 0.90ZM678.91-18.68L678.91-18.68L678.91-18.68Q678.38-17.46 677.95-15.64L677.95-15.64L677.95-15.64Q677.52-13.81 676.98-10.93L676.98-10.93L676.98-10.93Q676.44-8.05 676.44-4.50L676.44-4.50L676.44-4.50Q676.44-3.33 676.82-2.56L676.82-2.56L676.82-2.56Q677.20-1.80 678.24-1.80L678.24-1.80L678.24-1.80Q679.27-1.80 679.93-2.29L679.93-2.29L679.93-2.29Q680.58-2.79 681.07-3.96L681.07-3.96L681.07-3.96Q681.97-6.03 682.69-9.88L682.69-9.88L682.69-9.88Q683.41-13.72 683.48-15.39L683.48-15.39L683.48-15.39Q683.55-17.05 683.55-18.29L683.55-18.29L683.55-18.29Q683.55-19.53 683.19-20.34L683.19-20.34L683.19-20.34Q682.83-21.15 681.82-21.15L681.82-21.15L681.82-21.15Q680.80-21.15 680.13-20.52L680.13-20.52L680.13-20.52Q679.45-19.89 678.91-18.68ZM705.28-2.48L705.28-2.48L705.28-2.48Q703.89 0.90 699.43 0.90L699.43 0.90L699.43 0.90Q697.18 0.90 695.75-0.67L695.75-0.67L695.75-0.67Q694.57-1.98 694.57-3.46L694.57-3.46L694.57-3.46Q694.57-6.84 696.15-14.22L696.15-14.22L699.43-31.50L708.57-32.40L704.21-9.63L704.21-9.63Q703.44-6.30 703.44-5.13L703.44-5.13L703.44-5.13Q703.44-2.56 705.28-2.48ZM719.91-2.48L719.91-2.48L719.91-2.48Q718.51 0.90 714.06 0.90L714.06 0.90L714.06 0.90Q711.76 0.90 710.33-0.67L710.33-0.67L710.33-0.67Q709.11-2.07 709.11-3.46L709.11-3.46L709.11-3.46Q709.11-7.11 710.77-14.22L710.77-14.22L712.44-22.95L721.58-23.85L718.83-9.63L718.83-9.63Q718.07-6.30 718.07-5.13L718.07-5.13L718.07-5.13Q718.07-2.56 719.91-2.48ZM713.25-29.20L713.25-29.20L713.25-29.20Q713.25-30.96 714.71-31.90L714.71-31.90L714.71-31.90Q716.18-32.85 718.29-32.85L718.29-32.85L718.29-32.85Q720.40-32.85 721.69-31.90L721.69-31.90L721.69-31.90Q722.97-30.96 722.97-29.20L722.97-29.20L722.97-29.20Q722.97-27.45 721.55-26.55L721.55-26.55L721.55-26.55Q720.13-25.65 718.02-25.65L718.02-25.65L718.02-25.65Q715.90-25.65 714.58-26.55L714.58-26.55L714.58-26.55Q713.25-27.45 713.25-29.20ZM733.55 0.90L733.55 0.90L733.55 0.90Q723.64 0.90 723.64-8.41L723.64-8.41L723.64-8.41Q723.64-15.03 727.29-19.30L727.29-19.30L727.29-19.30Q731.16-23.85 737.87-23.85L737.87-23.85L737.87-23.85Q742.73-23.85 745.20-21.60L745.20-21.60L745.20-21.60Q747.68-19.35 747.68-14.63L747.68-14.63L747.68-14.63Q747.68-7.42 743.81-3.24L743.81-3.24L743.81-3.24Q740.02 0.90 733.55 0.90ZM734.72-18.68L734.72-18.68L734.72-18.68Q734.18-17.46 733.75-15.64L733.75-15.64L733.75-15.64Q733.32-13.81 732.78-10.93L732.78-10.93L732.78-10.93Q732.24-8.05 732.24-4.50L732.24-4.50L732.24-4.50Q732.24-3.33 732.62-2.56L732.62-2.56L732.62-2.56Q733.00-1.80 734.04-1.80L734.04-1.80L734.04-1.80Q735.08-1.80 735.73-2.29L735.73-2.29L735.73-2.29Q736.38-2.79 736.88-3.96L736.88-3.96L736.88-3.96Q737.77-6.03 738.50-9.88L738.50-9.88L738.50-9.88Q739.22-13.72 739.28-15.39L739.28-15.39L739.28-15.39Q739.35-17.05 739.35-18.29L739.35-18.29L739.35-18.29Q739.35-19.53 738.99-20.34L738.99-20.34L738.99-20.34Q738.63-21.15 737.62-21.15L737.62-21.15L737.62-21.15Q736.61-21.15 735.93-20.52L735.93-20.52L735.93-20.52Q735.25-19.89 734.72-18.68Z" fill="#475f40">
  </path>
  </g>
  </g>
  <style>
    text {
      font-size: 64px;
      font-family: Arial Black;
      dominant-baseline: central;
      text-anchor: middle;
    }
  </style>
</svg>